#tb 0: 1/1000
0,          0,          0,        0,    63000, 31ef44bd12ae702f306c55eba10d2ba7
0,         33,         33,        0,    63000, 83e9d913f5aa058d79a81047ca45e4a2
0,         66,         66,        0,    63000, b5e21313b859f1e2c67aaac5fefc9f68
0,        100,        100,        0,    63000, 959d63c1b219c3479af673a9a8b8d82c
0,        133,        133,        0,    63000, ffcfaf42b69c7cd92f6e3c21987ff7df
0,        166,        166,        0,    63000, e9667d3ee4d8179da44de4fbffcb7df2
0,        200,        200,        0,    63000, 5e2c841bcf4ec6f3a05020d36986fe5b
0,        233,        233,        0,    63000, 19fe287c30bd4c90b00a9631409568c0
0,        266,        266,        0,    63000, 58a8843e50b19860a0a91e1e1bb63bfd
0,        300,        300,        0,    63000, 0ebd31e18597a567f96645acbb2500cf
